<svg width="48" height="48" viewBox="0 0 48 48" fill="none" xmlns="http://www.w3.org/2000/svg">
<path d="M15.7339 20.125C16.8379 20.125 17.7339 19.229 17.7339 18.125V10.325C17.7339 6.838 20.5709 4 24.0579 4C27.5449 4 30.3829 6.838 30.3829 10.325V18.125C30.3829 19.229 31.2779 20.125 32.3829 20.125C33.4869 20.125 34.3829 19.229 34.3829 18.125V10.325C34.3839 4.632 29.7519 0 24.0579 0C18.3659 0 13.7339 4.632 13.7339 10.325V18.125C13.7339 19.229 14.6299 20.125 15.7339 20.125Z" fill="#FF9500"/>
<path d="M47 15.6311H36.384V18.1251C36.384 20.3311 34.59 22.1251 32.384 22.1251C30.178 22.1251 28.384 20.3311 28.384 18.1251V15.6311H19.735V18.1251C19.735 20.3311 17.941 22.1251 15.735 22.1251C13.529 22.1251 11.735 20.3311 11.735 18.1251V15.6311H0.999971C0.447971 15.6311 0.10697 16.0661 0.23797 16.6021L7.23597 45.0991C7.65797 46.7011 9.34397 48.0001 11 48.0001H37C38.658 48.0001 40.342 46.7011 40.766 45.0991L47.762 16.6021C47.893 16.0651 47.553 15.6311 47 15.6311Z" fill="#FF9500"/>
</svg>