<svg width="28" height="23" viewBox="0 0 28 23" fill="none" xmlns="http://www.w3.org/2000/svg">
<path fill-rule="evenodd" clip-rule="evenodd" d="M1.86125 9.6631C9.13102 6.49566 13.9783 4.40729 16.4031 3.39799C23.3287 0.518916 24.7752 0.0189162 25.7054 0.000311577C26.0504 -0.00639384 26.3888 0.0952785 26.6729 0.291009C26.8723 0.462923 26.9994 0.703806 27.0287 0.965428C27.0788 1.2908 27.0928 1.6207 27.0706 1.94915C26.6961 5.90264 25.0706 15.4585 24.245 19.8747C23.8961 21.7352 23.2078 22.3701 22.5403 22.4329C21.0938 22.5654 19.9822 21.4747 18.5868 20.5561C16.3915 19.1166 15.1519 18.2305 13.0217 16.8166C10.5589 15.1887 12.1566 14.3026 13.5589 12.8468C13.9264 12.4654 20.3031 6.66078 20.4287 6.1352C20.4453 6.05758 20.4433 5.97717 20.4231 5.90042C20.403 5.82368 20.365 5.75275 20.3124 5.69334C20.2361 5.64563 20.1497 5.61637 20.06 5.60789C19.9704 5.59942 19.8801 5.61195 19.7961 5.6445C19.5775 5.69256 16.0721 8.00961 9.27986 12.5957C8.28451 13.2794 7.38296 13.6127 6.57521 13.5957C5.68451 13.5747 3.97287 13.091 2.69845 12.6654C1.13799 12.1585 -0.0922353 11.891 0.00543907 11.0375C0.0628034 10.591 0.681404 10.1329 1.86125 9.6631Z" fill="white"/>
</svg>
