<svg width="25" height="26" viewBox="0 0 25 26" fill="none" xmlns="http://www.w3.org/2000/svg">
<path d="M21.7061 2.51863C21.0666 1.92561 18.4736 0.0442106 12.6992 0.0186292C12.6992 0.0186292 5.88985 -0.392995 2.57125 2.65352C0.710781 4.50003 0.0735731 7.20468 0.013108 10.5605C-0.0473571 13.9163 -0.145032 20.1954 5.91311 21.9V24.5C5.91311 24.5 5.87357 25.5512 6.5666 25.7675C7.4038 26.0256 7.89683 25.2256 8.69683 24.3721C9.13636 23.907 9.74334 23.2093 10.1992 22.6721C14.3433 23.021 17.5271 22.2233 17.8899 22.1047C18.7271 21.8349 23.4596 21.2279 24.2294 14.9442C25.0154 8.4605 23.8364 4.36514 21.7061 2.51863ZM22.4038 14.4721C21.755 19.7163 17.9154 20.0535 17.2085 20.2744C15.0445 20.8021 12.8119 20.992 10.5899 20.8372C10.5899 20.8372 7.97357 24 7.15497 24.8233C7.10895 24.8777 7.05041 24.9201 6.98437 24.9468C6.91834 24.9735 6.84679 24.9838 6.7759 24.9768C6.63636 24.9419 6.59683 24.7768 6.59916 24.5326C6.59916 24.1837 6.62008 20.2117 6.62008 20.2117C1.50381 18.7884 1.79683 13.4419 1.85497 10.6419C1.91311 7.84189 2.43869 5.54654 4.00148 4.00468C6.80846 1.46049 12.5922 1.84189 12.5922 1.84189C17.4759 1.86282 19.8178 3.33259 20.3596 3.82561C22.1619 5.3698 23.0805 9.06049 22.4085 14.4698L22.4038 14.4721Z" fill="white"/>
<path d="M15.076 10.7373C14.9924 10.7374 14.9119 10.7054 14.8513 10.6478C14.7907 10.5902 14.7546 10.5115 14.7504 10.428C14.6946 9.31871 14.1737 8.77452 13.1085 8.71871C13.0222 8.71439 12.9411 8.67595 12.8831 8.61184C12.8251 8.54773 12.7949 8.46319 12.7992 8.37684C12.8036 8.2905 12.842 8.2094 12.9061 8.1514C12.9702 8.09339 13.0547 8.06323 13.1411 8.06755C14.5364 8.14196 15.3295 8.94662 15.4016 10.3931C15.4054 10.4793 15.375 10.5636 15.3171 10.6276C15.2592 10.6916 15.1784 10.7302 15.0923 10.735L15.076 10.7373Z" fill="white"/>
<path d="M16.7499 11.3C16.6634 11.2975 16.5813 11.261 16.5216 11.1982C16.4619 11.1355 16.4295 11.0517 16.4313 10.9651C16.4607 10.4629 16.3897 9.95995 16.2224 9.48557C16.055 9.01118 15.7948 8.57492 15.4569 8.2023C14.7778 7.46044 13.8476 7.05812 12.6127 6.96742C12.57 6.96437 12.5282 6.95292 12.4899 6.93374C12.4516 6.91455 12.4174 6.88801 12.3893 6.85562C12.3612 6.82323 12.3398 6.78562 12.3263 6.74495C12.3127 6.70428 12.3073 6.66134 12.3104 6.61858C12.3135 6.57583 12.3249 6.53409 12.3441 6.49576C12.3633 6.45743 12.3898 6.42325 12.4222 6.39517C12.4546 6.3671 12.4922 6.34568 12.5329 6.33214C12.5735 6.3186 12.6165 6.31321 12.6592 6.31626C14.0546 6.41626 15.1523 6.90463 15.9383 7.76277C16.3318 8.19695 16.6357 8.70459 16.8324 9.25654C17.0292 9.80848 17.1149 10.3939 17.0848 10.979C17.0839 11.0221 17.0745 11.0646 17.0572 11.104C17.0399 11.1435 17.015 11.1791 16.9839 11.2089C16.9528 11.2387 16.9161 11.2621 16.876 11.2777C16.8358 11.2933 16.793 11.3009 16.7499 11.3V11.3Z" fill="white"/>
<path d="M18.4666 11.9697C18.3806 11.9697 18.2982 11.9357 18.2372 11.8751C18.1762 11.8146 18.1416 11.7324 18.141 11.6464C18.1247 9.67666 17.534 8.10922 16.3829 6.99526C15.8098 6.43766 15.1317 5.99927 14.388 5.70546C13.6444 5.41166 12.8498 5.26829 12.0503 5.28364C11.9684 5.27672 11.8921 5.23931 11.8365 5.17879C11.7809 5.11828 11.75 5.03909 11.75 4.9569C11.75 4.87471 11.7809 4.79551 11.8365 4.735C11.8921 4.67448 11.9684 4.63707 12.0503 4.63015V4.63015C12.9332 4.6115 13.8111 4.76818 14.633 5.09112C15.4549 5.41407 16.2046 5.89686 16.8387 6.51155C18.1201 7.76038 18.7759 9.48364 18.7922 11.6278C18.7928 11.6707 18.7849 11.7132 18.7689 11.753C18.7529 11.7927 18.7292 11.8289 18.6992 11.8594C18.6691 11.8899 18.6332 11.9142 18.5937 11.9307C18.5542 11.9472 18.5118 11.9557 18.4689 11.9557L18.4666 11.9697Z" fill="white"/>
<path d="M13.1897 14.786C13.3183 14.7941 13.4473 14.7744 13.5677 14.7283C13.688 14.6821 13.7971 14.6106 13.8873 14.5185L14.3711 13.9139C14.5372 13.73 14.7627 13.6106 15.0081 13.5766C15.2535 13.5426 15.5031 13.5961 15.7129 13.7278C16.1251 13.9613 16.5248 14.2159 16.9106 14.4906C17.2734 14.7604 18.0199 15.3813 18.0222 15.3813C18.1955 15.5246 18.311 15.7259 18.3473 15.9478C18.3837 16.1697 18.3384 16.3972 18.2199 16.5883V16.5883C17.9525 17.0505 17.6134 17.4673 17.2153 17.8232V17.8232C16.9306 18.0827 16.5768 18.254 16.1966 18.3162C16.1472 18.322 16.0973 18.322 16.0478 18.3162C15.9009 18.3171 15.7549 18.2943 15.6153 18.2488V18.2325C15.1013 18.0883 14.2432 17.7255 12.8246 16.9371C11.9932 16.4965 11.2011 15.9853 10.4571 15.4092C10.0863 15.1203 9.73301 14.8097 9.39897 14.479L9.36177 14.4441L9.32688 14.4069L9.292 14.372L9.25479 14.3371C8.92528 14.002 8.61472 13.6487 8.32456 13.279C7.73657 12.5418 7.21221 11.756 6.75711 10.9302C5.96874 9.50226 5.59432 8.64644 5.46176 8.13947H5.44549C5.40067 7.99972 5.37868 7.85366 5.38037 7.70691C5.37451 7.65747 5.37451 7.60751 5.38037 7.55807C5.44134 7.16792 5.61515 6.80413 5.88037 6.51156C5.88037 6.51156 5.88037 6.51156 5.88037 6.51156C6.23612 6.11331 6.65295 5.77419 7.11525 5.50691V5.50691C7.30587 5.3888 7.53274 5.34353 7.75409 5.37943C7.97544 5.41532 8.17638 5.52997 8.3199 5.70226C8.3199 5.70226 8.94316 6.45109 9.2106 6.81388C9.47804 7.17667 9.75944 7.5883 9.992 7.99993C10.1228 8.21004 10.1759 8.45937 10.1419 8.70454C10.1079 8.94971 9.989 9.1752 9.80595 9.3418L9.19897 9.82319C9.10733 9.91365 9.03622 10.0228 8.99047 10.1432C8.94473 10.2635 8.92542 10.3924 8.93386 10.5209C8.93386 10.5209 9.83386 13.9278 13.1897 14.786Z" fill="white"/>
</svg>
