<svg width="25" height="25" viewBox="0 0 25 25" fill="none" xmlns="http://www.w3.org/2000/svg">
<path d="M0 24.9489L1.75583 18.5396C0.397453 16.1809 -0.144872 13.44 0.212928 10.7417C0.570727 8.04347 1.80865 5.53862 3.73481 3.61548C5.66097 1.69235 8.16777 0.458355 10.8666 0.104798C13.5654 -0.248759 16.3054 0.297873 18.662 1.65995C21.0185 3.02203 22.8599 5.12347 23.9007 7.6385C24.9414 10.1535 25.1234 12.9416 24.4185 15.5706C23.7135 18.1996 22.161 20.5226 20.0015 22.1795C17.842 23.8364 15.1963 24.7346 12.4744 24.7349V24.7349C10.4097 24.7337 8.37822 24.2156 6.56513 23.2279L0 24.9489ZM6.86047 20.9954L7.23722 21.2279C8.82146 22.1661 10.6286 22.6617 12.4698 22.6628V22.6628C14.7498 22.6633 16.9653 21.906 18.7681 20.51C20.5708 19.114 21.8585 17.1585 22.4287 14.951C22.9989 12.7434 22.8194 10.4089 21.9182 8.31449C21.017 6.2201 19.4454 4.48459 17.4503 3.38079C15.4553 2.27698 13.15 1.86749 10.8968 2.21669C8.64368 2.56589 6.57048 3.65397 5.00314 5.30987C3.4358 6.96578 2.4632 9.09561 2.23826 11.3645C2.01332 13.6334 2.54879 15.9128 3.76048 17.8442L3.99303 18.2326L2.95349 22.0256L6.86047 20.9954Z" fill="white"/>
<path fill-rule="evenodd" clip-rule="evenodd" d="M18.705 15.3071C18.6283 15.1769 18.4213 15.1001 18.112 14.9466C17.8027 14.7931 16.2841 14.0443 16.0004 13.9397C15.7166 13.835 15.512 13.7862 15.3027 14.0955C15.0934 14.4048 14.505 15.1001 14.3259 15.3071C14.1469 15.5141 13.9631 15.5397 13.6562 15.3838C12.7497 15.0198 11.9133 14.5013 11.1841 13.8513C10.5084 13.2263 9.92922 12.5045 9.46547 11.7094C9.28407 11.4001 9.44454 11.2443 9.60035 11.0792C9.75617 10.9141 9.90966 10.7164 10.0655 10.5373C10.1933 10.3813 10.2976 10.2074 10.3748 10.021C10.4155 9.93561 10.4344 9.84144 10.43 9.74691C10.4255 9.65237 10.3978 9.56041 10.3492 9.47919C10.2724 9.3257 9.65152 7.80477 9.3957 7.18616C9.13989 6.56756 8.89105 6.66523 8.69803 6.65361C8.505 6.64198 8.31199 6.65361 8.10734 6.65361C7.94839 6.65623 7.79176 6.69215 7.64756 6.75904C7.50335 6.82594 7.37477 6.92232 7.27012 7.04198C6.9233 7.37083 6.64821 7.76782 6.46211 8.20805C6.27602 8.64827 6.18295 9.12221 6.18873 9.60012C6.18873 11.121 7.29571 12.5908 7.45152 12.7978C7.60733 13.0048 9.63059 16.1257 12.7306 17.4629C13.3062 17.7113 13.8946 17.9286 14.4934 18.1141C15.1239 18.3055 15.7903 18.3477 16.4399 18.2373C17.0329 18.149 18.2678 17.4885 18.5329 16.7676C18.798 16.0466 18.7818 15.435 18.705 15.3071Z" fill="white"/>
</svg>
